<?xml version="1.0" encoding="UTF-8"?>
<svg id="Layer_1" data-name="Layer 1" xmlns="http://www.w3.org/2000/svg" xmlns:xlink="http://www.w3.org/1999/xlink" viewBox="0 0 100 100">
  <defs>
    <style>
      .cls-1 {
        fill: #454545;
      }

      .cls-2 {
        fill: url(#linear-gradient);
      }
    </style>
    <linearGradient id="linear-gradient" x1="23.66" y1="76.39" x2="76.6" y2="23.46" gradientUnits="userSpaceOnUse">
      <stop offset=".3" stop-color="#c8c8c8"/>
      <stop offset=".69" stop-color="#c1c1c1"/>
    </linearGradient>
  </defs>
  <rect class="cls-1" y="0" width="100" height="100"/>
  <path class="cls-2" d="M87.49,48.83c-.17-11.73-5.94-21.52-14.72-28.94-3.08-2.61-6.76-4.44-10.61-5.62-3.96-1.21-8.12-1.74-12.26-1.69-4.21,.05-8.46,.68-12.45,2.04-4.11,1.4-7.9,3.61-11.22,6.39-.18,.15-.37,.31-.55,.46-1.85,1.58-3.59,3.17-5.03,5.14-1.42,1.94-2.7,3.99-3.83,6.11-2.13,4.03-3.56,8.27-4.08,12.81-.49,4.26-.22,8.6,.74,12.78s2.63,8.18,4.96,11.76c.29,.45,.59,.89,.9,1.32,7.03,9.76,19.07,16.09,31.13,16.03,9.26-.05,18.48-3.71,25.27-10.01,3.39-3.15,6.34-6.96,8.32-11.15,1.66-3.51,2.66-7.3,3.12-11.15,.25-2.09,.35-4.19,.32-6.3ZM15.15,44.78c-.4-6.83,2.51-13.63,7.02-18.8,2.63-3,5.78-5.51,9.17-7.6,1.73-1.07,3.53-2.03,5.37-2.9,.37-.18,4.81-2.32,4.49-.65-.04,.2-.2,.34-.36,.47-2.36,1.87-5.2,2.99-7.84,4.44-9.47,5.21-16.26,15.01-17.8,25.7-.02-.22-.04-.44-.05-.65Zm13.47,31.62c-6.86-6.35-12.8-14.61-13.13-23.96-.2-5.8,1.81-11.54,5.02-16.37,3.21-4.83,7.57-8.81,12.27-12.2,3.33-2.4,6.97-4.57,11.01-5.24,.77-.13,2.17-1.67,2.94-2.09,1.17-.65,2.43-1.14,3.73-1.47,2.48-.63,4.99-.91,7.56-.74,5.21,.34,10.32,2.34,14.31,5.72-4.25-2.61-9.32-3.86-14.29-3.51-3,.21-5.93,.98-8.85,1.74-1.97,.52-3.96,1.04-5.79,1.92-1.65,.79-3.15,1.87-4.62,2.95-4.92,3.61-9.74,7.46-13.55,12.22s-6.58,10.54-6.86,16.64c-.4,9.01,4.58,17.37,10.22,24.4Zm47.89-6.46c-.11,.5-.27,.99-.47,1.46-1.38,3.36-4.31,5.85-7.44,7.7-9.77,5.81-22.4,6.49-32.55,1.32-3.71-1.89-6.93-4.75-9.21-8.24-3.07-4.7-4.39-10.51-3.67-16.08,.68-5.27,3.14-10.22,6.5-14.34s7.6-7.45,12.11-10.27c1.41-.88,2.34-1.59,3.92-2.11,.64-.21,1.14-.39,2.35-.21,0,0,.5-1.14,1.92-2.57,.43-.43,7.36-5.12,17.1-4.28,6.59,.57,13.28,5.38,16.25,11.57-5.94-5.96-14.69-8.61-22.93-6.92-2.92,.6-8.3,2.96-9.35,3.26-1.5,.43-2.35-.43-2.35-.21s.13,1.08-.43,1.5c-6.07,4.61-11.99,9.72-15.83,16.3-3.84,6.59-5.32,14.95-2.21,21.91,2.3,5.13,6.94,9.07,12.26,10.91,5.31,1.84,11.22,1.68,16.59-.02,3.02-.96,5.94-2.42,8.15-4.7,1.55-1.6,2.71-4.15,1.44-5.97-1.03-1.47-3.19-1.69-4.89-1.13-1.48,.48-2.8,1.43-3.73,2.68-.86-2.49,.33-5.39,2.41-7,2.08-1.61,4.87-2.09,7.49-1.84,2.67,.26,5.56,1.51,6.46,4.04,.37,1.03,.36,2.15,.11,3.23Zm7.57-10.48c-.06,.33-.13,.66-.22,.98-.51,1.87-1.46,3.58-2.44,5.25-.64,1.1-1.35,2.24-2.48,2.84,.29-2.83,1.16-5.78,.11-8.43-1.1-2.81-4.18-4.47-7.19-4.67-3.01-.21-5.97,.79-8.74,1.98-1.54,.66-4.46,1.87-6.1,2.34-1.46,.42,.2-2.37,1.64-3.54,2.21-1.8,4.26-2.88,6.54-4.05,2.58-1.32,5.33-2.5,8.23-2.63,2.36-.11,4.75,.49,6.78,1.71,1.42,.85,2.69,2.03,3.38,3.54,.67,1.45,.76,3.11,.48,4.7Zm2.29-7.83c-.28,.77-.64,1.51-1.08,2.2-.47-3.23-1.02-6.64-3.11-9.15-1.58-1.91-3.91-3.08-6.3-3.74-3.15-.88-6.52-.95-9.7-.21-2.45,.57-4.77,1.6-7.16,2.37-.93,.3-7.13,3.12-6.27,.82,.16-.44,.91-1.71,1.26-2.02,5.44-4.74,12.84-7.16,20.03-6.53,2.86,.25,5.75,.99,8.1,2.65,2.42,1.71,3.82,4.36,4.4,7.27,.42,2.1,.56,4.33-.18,6.34Z"/>
</svg>