<svg id="Layer_1" data-name="Layer 1" xmlns="http://www.w3.org/2000/svg" viewBox="0 0 100 100"><defs><style>.cls-1{fill:#333;}.cls-2{fill:#fffa8a;}</style></defs><rect class="cls-1" width="100" height="100"/><path class="cls-2" d="M50,95A45,45,0,1,1,95,50,45.05,45.05,0,0,1,50,95ZM50,7.12A42.88,42.88,0,1,0,92.88,50,42.92,42.92,0,0,0,50,7.12Z"/><path class="cls-2" d="M56,38.38v1.08a6.53,6.53,0,0,1-.85-.05,4.35,4.35,0,0,1-4-3.6,5.43,5.43,0,0,1,3.71-5.71c2.32-.84,5.29.28,5.95,4.29a31.84,31.84,0,0,1,0,7.6c-.47,4.64-2.86,16.46-2.86,16.46s6.82-24.31,13.89-28.61c3-1.8,5.07-1.1,6.18.08,1.53,1.65,1.4,4.54,1.32,5.78S74.9,69.35,74.9,69.35a3.07,3.07,0,0,1-2.42.86,2.38,2.38,0,0,0-2.26,1.05l4.54-28.08s2-10.88.16-12.82c0,0-1-1-3.44,1s-6.64,10.74-7.72,13.79-6.6,20.53-6.6,20.53.14.74-2.35.93c-1.58.13-2,.67-2,.67l4-20c0-.27.1-.55.14-.82q.18-1.07.33-2.13c.14-1,.27-2,.38-2.94s.21-2.19.27-3.28S58,36.05,58,35a10,10,0,0,0-.44-2.71,1.85,1.85,0,0,0-.57-.88,1.52,1.52,0,0,0-1.1-.28,3.6,3.6,0,0,0-1.49.61,4.65,4.65,0,0,0-1.31,1.19,3.55,3.55,0,0,0-.68,2,2.26,2.26,0,0,0,0,.26,3.06,3.06,0,0,0,1.25,2.14,5.35,5.35,0,0,0,1.13.67C54.85,38,56,38.37,56,38.38Z"/><path class="cls-2" d="M35.28,30.34c13.95,0,14,10.64,14,10.64,0,13.41-13.91,12.5-13.91,12.5H26.23V68.9L21,69l-.33-38.46Zm-9.45,4.14.22,15.19,8.88-.16S44,50,44,41.56c0,0,0-7.21-9.17-7.21Z"/></svg>